<?xml version="1.0" encoding="utf-8"?>
<!-- Generator: Adobe Illustrator 26.4.1, SVG Export Plug-In . SVG Version: 6.00 Build 0)  -->
<svg version="1.1" id="Layer_1" xmlns="http://www.w3.org/2000/svg" xmlns:xlink="http://www.w3.org/1999/xlink" x="0px" y="0px"
	 viewBox="0 0 700 700" style="enable-background:new 0 0 700 700;" xml:space="preserve">
<symbol  id="b" viewBox="-6.6 -6.3 13.2 12.6">
	<path d="M0-3.5c-0.8,0-1.5,0.3-1.9,0.9C-2.4-2-2.6-1.1-2.6,0c0,1.1,0.2,2,0.7,2.6C-1.5,3.2-0.8,3.5,0,3.5c0.8,0,1.5-0.3,1.9-0.9
		C2.4,2,2.6,1.1,2.6,0c0-1.1-0.2-2-0.7-2.6C1.5-3.2,0.8-3.5,0-3.5z M0-6.3c2.1,0,3.7,0.6,4.8,1.7C6-3.5,6.6-2,6.6,0S6,3.5,4.8,4.6
		C3.7,5.7,2.1,6.3,0,6.3c-2.1,0-3.7-0.6-4.8-1.7C-6,3.5-6.6,2-6.6,0S-6-3.5-4.8-4.6C-3.7-5.7-2-6.3,0-6.3z"/>
</symbol>
<g>
	<path d="M522.4,305.9c1.2,1.1,1.9,2.6,1.9,4.2v171.3c0,3.1-2.5,5.6-5.6,5.6H402.7c-3.1,0-5.6-2.5-5.6-5.6V372c0-6-2.4-11.7-6.6-16
		c-4.2-4.2-10-6.6-16-6.6h-48.9c-6,0-11.7,2.4-16,6.6c-4.2,4.2-6.6,10-6.6,16v109.4c0,3.1-2.5,5.6-5.7,5.6H181.4
		c-3.1,0-5.6-2.5-5.6-5.6V310.1c0-1.6,0.7-3.2,1.9-4.2l164.9-145.6c4.3-3.8,10.7-3.8,15,0L522.4,305.9z M567.8,249.4l-188-165.2
		c-8.2-7.2-18.9-11.2-29.8-11.2c-11,0-21.6,4-29.8,11.2L132.2,249.4c-4.4,3.9-7.1,9.5-7.2,15.4c-0.2,5.9,2.1,11.6,6.2,15.8v0
		c3.8,3.8,9,6.1,14.4,6.2c5.4,0.2,10.7-1.7,14.8-5.3l174.6-153.8c4.1-3.6,9.4-5.6,14.9-5.6s10.8,2,14.9,5.6l174.6,153.8
		c5.7,5,13.7,6.6,20.9,4.2c7.2-2.4,12.6-8.6,14.1-16C576.1,262.1,573.5,254.4,567.8,249.4L567.8,249.4z"/>
	<g>
		<defs>
			<line id="SVGID_1_" x1="836.9" y1="1325.6" x2="136.9" y2="1325.6"/>
		</defs>
		<clipPath id="SVGID_00000054262405838851502090000017856773217166235533_">
			<use xlink:href="#SVGID_1_"  style="overflow:visible;"/>
		</clipPath>
	</g>
	<g>
		<defs>
			<line id="SVGID_00000155824871095060317350000006001323656911542448_" x1="951.2" y1="1325.6" x2="251.2" y2="1325.6"/>
		</defs>
		<clipPath id="SVGID_00000164505706275698759500000005506214547372377227_">
			<use xlink:href="#SVGID_00000155824871095060317350000006001323656911542448_"  style="overflow:visible;"/>
		</clipPath>
	</g>
	<g>
		<defs>
			<polyline id="SVGID_00000015340443897683581300000014567310747959170192_" points="1041.4,625.6 1041.4,1325.6 341.4,1325.6 			
				"/>
		</defs>
		<clipPath id="SVGID_00000158725120442196474370000007841510177837119917_">
			<use xlink:href="#SVGID_00000015340443897683581300000014567310747959170192_"  style="overflow:visible;"/>
		</clipPath>
	</g>
	<g>
		<defs>
			<polyline id="SVGID_00000003091616369129231650000003112724397610717370_" points="1051.8,625.6 1051.8,1325.6 351.8,1325.6 			
				"/>
		</defs>
		<clipPath id="SVGID_00000045584499109601180640000001371420714156034231_">
			<use xlink:href="#SVGID_00000003091616369129231650000003112724397610717370_"  style="overflow:visible;"/>
		</clipPath>
		<g style="clip-path:url(#SVGID_00000045584499109601180640000001371420714156034231_);">
			
				<use xlink:href="#b"  width="13.2" height="12.6" x="-6.6" y="-6.3" transform="matrix(1 0 0 1 359.3281 619.6562)" style="overflow:visible;"/>
		</g>
	</g>
	<g>
		<defs>
			<line id="SVGID_00000156562492352019425210000013449735759559329952_" x1="779.5" y1="1347.5" x2="79.5" y2="1347.5"/>
		</defs>
		<clipPath id="SVGID_00000180334963146871182750000008422287115338349737_">
			<use xlink:href="#SVGID_00000156562492352019425210000013449735759559329952_"  style="overflow:visible;"/>
		</clipPath>
	</g>
	<g>
		<defs>
			<line id="SVGID_00000060712116578988499230000000478765613672045502_" x1="790.3" y1="1347.5" x2="90.3" y2="1347.5"/>
		</defs>
		<clipPath id="SVGID_00000171714969753749713040000011896791514902023584_">
			<use xlink:href="#SVGID_00000060712116578988499230000000478765613672045502_"  style="overflow:visible;"/>
		</clipPath>
	</g>
	<g>
		<defs>
			<line id="SVGID_00000086661028630514420090000010861113189084701835_" x1="835.7" y1="1347.5" x2="135.7" y2="1347.5"/>
		</defs>
		<clipPath id="SVGID_00000104702487007637520800000010841531051706671508_">
			<use xlink:href="#SVGID_00000086661028630514420090000010861113189084701835_"  style="overflow:visible;"/>
		</clipPath>
	</g>
	<g>
		<defs>
			<line id="SVGID_00000170970933156306136570000017032484894846518961_" x1="861.8" y1="1347.5" x2="161.8" y2="1347.5"/>
		</defs>
		<clipPath id="SVGID_00000020381640210995907170000002850361337337869994_">
			<use xlink:href="#SVGID_00000170970933156306136570000017032484894846518961_"  style="overflow:visible;"/>
		</clipPath>
	</g>
	<g>
		<defs>
			<line id="SVGID_00000003786751556489340980000011853104239709799578_" x1="902.5" y1="1347.5" x2="202.5" y2="1347.5"/>
		</defs>
		<clipPath id="SVGID_00000096745232827201689390000015628993943958745528_">
			<use xlink:href="#SVGID_00000003786751556489340980000011853104239709799578_"  style="overflow:visible;"/>
		</clipPath>
	</g>
	<g>
		<defs>
			<line id="SVGID_00000001643462264610876320000001477542482315588238_" x1="933.1" y1="1347.5" x2="233.1" y2="1347.5"/>
		</defs>
		<clipPath id="SVGID_00000148626312303950259020000006328982368302041006_">
			<use xlink:href="#SVGID_00000001643462264610876320000001477542482315588238_"  style="overflow:visible;"/>
		</clipPath>
	</g>
	<g>
		<defs>
			<line id="SVGID_00000181767253483629816850000005569627929966260127_" x1="972.4" y1="1347.5" x2="272.4" y2="1347.5"/>
		</defs>
		<clipPath id="SVGID_00000062899858554562778170000016404645214770151342_">
			<use xlink:href="#SVGID_00000181767253483629816850000005569627929966260127_"  style="overflow:visible;"/>
		</clipPath>
	</g>
	<g>
		<defs>
			<line id="SVGID_00000162344954569391419100000017469435974152129712_" x1="983.1" y1="1347.5" x2="283.1" y2="1347.5"/>
		</defs>
		<clipPath id="SVGID_00000165945343203091366820000018152075244588313735_">
			<use xlink:href="#SVGID_00000162344954569391419100000017469435974152129712_"  style="overflow:visible;"/>
		</clipPath>
	</g>
	<g>
		<defs>
			<polyline id="SVGID_00000155825496591324146120000012905413886234208403_" points="1005.7,647.5 1005.7,1347.5 305.7,1347.5 			
				"/>
		</defs>
		<clipPath id="SVGID_00000026847991293567704780000018321498709490503577_">
			<use xlink:href="#SVGID_00000155825496591324146120000012905413886234208403_"  style="overflow:visible;"/>
		</clipPath>
	</g>
	<g>
		<defs>
			<polyline id="SVGID_00000106828214868648298410000009614849045487054983_" points="1033.5,647.5 1033.5,1347.5 333.5,1347.5 			
				"/>
		</defs>
		<clipPath id="SVGID_00000046333536437516017300000016359695928048068761_">
			<use xlink:href="#SVGID_00000106828214868648298410000009614849045487054983_"  style="overflow:visible;"/>
		</clipPath>
	</g>
</g>
</svg>
