<?xml version="1.0" encoding="UTF-8"?>
<svg width="700pt" height="700pt" version="1.1" viewBox="0 0 700 700" xmlns="http://www.w3.org/2000/svg">
 <path d="m560 175h-420c-12.504 0-24.059-6.6719-30.312-17.5-6.25-10.828-6.25-24.172 0-35 6.2539-10.828 17.809-17.5 30.312-17.5h420c12.504 0 24.059 6.6719 30.312 17.5 6.25 10.828 6.25 24.172 0 35-6.2539 10.828-17.809 17.5-30.312 17.5zm-35 105c0-9.2812-3.6875-18.184-10.25-24.75-6.5664-6.5625-15.469-10.25-24.75-10.25h-280c-12.504 0-24.059 6.6719-30.312 17.5-6.25 10.828-6.25 24.172 0 35 6.2539 10.828 17.809 17.5 30.312 17.5h280c9.2812 0 18.184-3.6875 24.75-10.25 6.5625-6.5664 10.25-15.469 10.25-24.75zm70 140c0-9.2812-3.6875-18.184-10.25-24.75-6.5664-6.5625-15.469-10.25-24.75-10.25h-420c-12.504 0-24.059 6.6719-30.312 17.5-6.25 10.828-6.25 24.172 0 35 6.2539 10.828 17.809 17.5 30.312 17.5h420c9.2812 0 18.184-3.6875 24.75-10.25 6.5625-6.5664 10.25-15.469 10.25-24.75z"/>
</svg>
